<svg width="360" height="360" viewBox="0 0 360 360" fill="none" xmlns="http://www.w3.org/2000/svg">
<path d="M176.028 54.511C187.025 56.1076 197.707 45.2327 199.884 30.2222C202.061 15.2125 194.911 1.75078 183.914 0.15548C172.917 -1.44068 162.236 9.43389 160.058 24.4446C157.88 39.4545 165.031 52.9165 176.028 54.511Z" fill="#D89354"/>
<path d="M105.445 31.0985C106.146 32.3363 106.887 33.5494 107.645 34.7527C109.166 37.1581 110.783 39.5044 112.472 41.8036C114.018 43.9 115.628 45.9548 117.297 47.9667C116.797 50.7816 116.256 53.5766 115.669 56.3491C114.545 61.6648 113.256 66.9001 111.768 72.0279C111.02 74.5911 110.237 77.1306 109.385 79.6348C108.551 82.1442 107.637 84.615 106.694 87.0571C104.866 91.7065 104.8 91.808 104.797 91.8077C108.782 98.6638 112.46 105.363 115.866 111.913C116.3 110.909 116.724 109.902 117.131 108.892C119.347 103.323 121.125 97.636 122.465 91.8918C123.149 89.0243 123.704 86.1369 124.188 83.2501C124.653 80.3592 125.038 77.4675 125.314 74.5722C125.87 68.8527 126.066 63.1339 125.923 57.4527C129.17 60.7142 132.59 63.8313 136.177 66.7826C138.419 68.6344 140.737 70.4068 143.11 72.1221C145.492 73.8216 147.927 75.4706 150.438 77.0147C155.448 80.1288 160.726 82.8924 166.231 85.2643C167.233 85.6902 168.245 86.1019 169.262 86.5053C167.038 79.4658 164.902 72.1279 162.872 64.4622C162.87 64.4642 162.751 64.4396 158.172 62.4441C155.777 61.3844 153.385 60.2833 151.02 59.0987C148.647 57.9308 146.298 56.6884 143.956 55.405C139.278 52.8309 134.665 50.0405 130.111 47.0768C128.361 45.938 126.62 44.7732 124.887 43.5845C124.743 42.4361 124.586 41.2902 124.413 40.1475C123.982 37.3273 123.466 34.5252 122.84 31.7488C122.526 30.3617 122.192 28.9804 121.813 27.609C121.623 26.9227 121.43 26.2393 121.227 25.5588C121.013 24.8797 120.807 24.2008 120.564 23.533C120.501 24.241 120.441 24.9424 120.367 25.6448C120.301 26.3456 120.232 27.045 120.155 27.7439C120.001 29.1403 119.848 30.5294 119.678 31.9147C119.382 34.3629 119.059 36.7953 118.706 39.2144C118.01 38.7081 117.315 38.1993 116.622 37.6854C114.4 36.0419 112.195 34.3561 109.999 32.6336C108.899 31.7742 107.808 30.9003 106.712 30.0219C106.163 29.5823 105.62 29.1365 105.078 28.6877C104.529 28.2434 103.99 27.7898 103.445 27.3333C103.746 27.9776 104.08 28.6034 104.409 29.2347C104.747 29.8594 105.094 30.479 105.445 31.0985Z" fill="#D89354"/>
<path d="M189.185 64.4622C187.155 72.1279 185.019 79.4658 182.795 86.5053C183.812 86.1019 184.823 85.6902 185.826 85.2643C191.331 82.8924 196.609 80.1288 201.619 77.0147C204.13 75.4706 206.564 73.8216 208.947 72.1221C211.32 70.4068 213.637 68.6344 215.88 66.7826C220.317 63.1312 224.5 59.2263 228.416 55.1076C228.406 59.7101 228.62 64.3326 229.069 68.9556C229.345 71.8505 229.731 74.7426 230.196 77.6333C230.679 80.52 231.234 83.4075 231.918 86.2752C233.258 92.0194 235.037 97.7058 237.252 103.275C237.66 104.285 238.084 105.292 238.518 106.296C241.923 99.7461 245.601 93.0471 249.586 86.1909C249.584 86.1914 249.517 86.0897 247.69 81.4404C246.746 78.9982 245.833 76.5275 244.998 74.0182C244.146 71.5139 243.363 68.9744 242.615 66.4111C241.128 61.2832 239.838 56.048 238.714 50.7321C238.282 48.6895 237.874 46.6347 237.489 44.5689C238.2 43.6552 238.899 42.7337 239.585 41.8037C241.274 39.5044 242.891 37.1581 244.412 34.7527C245.17 33.5494 245.91 32.3363 246.612 31.0985C246.963 30.479 247.31 29.8594 247.648 29.2347C247.977 28.6034 248.311 27.9776 248.611 27.3333C248.066 27.7898 247.528 28.2435 246.979 28.6877C246.437 29.1366 245.893 29.5823 245.345 30.0219C244.248 30.9004 243.158 31.7742 242.058 32.6336C240.118 34.1556 238.169 35.6471 236.209 37.1079C236.075 36.258 235.943 35.4069 235.817 34.5535C235.407 31.8199 235.04 29.0685 234.706 26.298C234.536 24.9126 234.382 23.5235 234.228 22.1269C234.151 21.4281 234.082 20.7289 234.016 20.0279C233.942 19.3257 233.882 18.6241 233.819 17.916C233.576 18.5841 233.37 19.2629 233.157 19.942C232.953 20.6224 232.76 21.3059 232.571 21.9923C232.192 23.3637 231.858 24.745 231.543 26.132C230.918 28.9084 230.401 31.7105 229.97 34.5306C229.581 37.1065 229.266 39.6977 229.024 42.3004C226.68 43.9375 224.321 45.5311 221.946 47.0768C217.392 50.0405 212.778 52.8309 208.101 55.405C205.759 56.6884 203.41 57.9308 201.037 59.0987C198.672 60.2833 196.279 61.3844 193.885 62.4441C189.306 64.4397 189.187 64.4642 189.185 64.4622Z" fill="#D89354"/>
<path d="M88.4576 94.0743C97.3624 87.4274 97.2258 72.1846 88.1512 60.0313C79.0773 47.8781 64.5028 43.4149 55.5984 50.0631C46.6939 56.7104 46.8306 71.9527 55.9046 84.1071C64.9784 96.2604 79.5533 100.723 88.4576 94.0743Z" fill="#D89354"/>
<path d="M21.9922 127.429C23.3637 127.808 24.745 128.143 26.1321 128.457C28.9085 129.083 31.7106 129.599 34.5307 130.03C37.1065 130.419 39.6977 130.734 42.3004 130.976C43.9375 133.32 45.5311 135.679 47.0768 138.054C50.0405 142.608 52.831 147.222 55.4051 151.899C56.6884 154.241 57.9309 156.59 59.0988 158.964C60.2833 161.328 61.3845 163.721 62.4441 166.115C64.4396 170.694 64.4642 170.814 64.4622 170.815C72.1279 172.845 79.4659 174.981 86.5053 177.205C86.102 176.188 85.6902 175.177 85.2643 174.174C82.8924 168.669 80.1289 163.391 77.0147 158.382C75.4707 155.87 73.8216 153.436 72.1221 151.053C70.4068 148.68 68.6345 146.363 66.7827 144.12C63.1312 139.683 59.2264 135.5 55.1075 131.584C59.7101 131.594 64.3325 131.38 68.9555 130.931C71.8505 130.655 74.7426 130.269 77.6334 129.804C80.52 129.321 83.4076 128.766 86.2751 128.082C92.0193 126.742 97.7059 124.963 103.275 122.748C104.285 122.34 105.292 121.916 106.296 121.482C99.7461 118.077 93.0473 114.399 86.1909 110.414C86.1912 110.416 86.0897 110.483 81.4404 112.311C78.9982 113.254 76.5275 114.167 74.0182 115.002C71.514 115.854 68.9744 116.637 66.411 117.385C61.2833 118.873 56.0479 120.162 50.7322 121.286C48.6896 121.718 46.6347 122.126 44.5689 122.511C43.6552 121.8 42.7337 121.101 41.8037 120.415C39.5044 118.726 37.1581 117.11 34.7527 115.589C33.5494 114.83 32.3363 114.09 31.0985 113.388C30.4791 113.037 29.8595 112.69 29.2347 112.353C28.6035 112.023 27.9777 111.689 27.3333 111.389C27.7898 111.934 28.2434 112.472 28.6878 113.021C29.1366 113.563 29.5823 114.107 30.0219 114.656C30.9003 115.752 31.7743 116.843 32.6337 117.942C34.1556 119.883 35.6472 121.831 37.108 123.791C36.2581 123.925 35.4069 124.057 34.5535 124.183C31.8199 124.593 29.0685 124.96 26.298 125.295C24.9125 125.464 23.5234 125.618 22.127 125.772C21.4281 125.849 20.7289 125.918 20.028 125.984C19.3257 126.058 18.6242 126.118 17.916 126.181C18.5841 126.424 19.2629 126.63 19.9421 126.844C20.6224 127.047 21.3059 127.24 21.9922 127.429Z" fill="#D89354"/>
<path d="M54.511 183.972C56.1077 172.975 45.2327 162.293 30.2223 160.116C15.2125 157.939 1.75088 165.089 0.155479 176.086C-1.44068 187.083 9.434 197.764 24.4446 199.942C39.4545 202.12 52.9165 194.97 54.511 183.972Z" fill="#D89354"/>
<path d="M60.0313 271.849C47.8781 280.923 43.4149 295.497 50.0632 304.402C56.7105 313.306 71.9526 313.17 84.1071 304.095C96.2603 295.022 100.723 280.447 94.0744 271.543C87.4274 262.638 72.1846 262.774 60.0313 271.849Z" fill="#D89354"/>
<path d="M56.3491 244.331C61.6649 245.455 66.9001 246.744 72.0279 248.232C74.5911 248.98 77.1307 249.762 79.6348 250.615C82.1442 251.449 84.615 252.363 87.0571 253.306C91.7065 255.133 91.8081 255.2 91.8077 255.203C98.6638 251.218 105.363 247.54 111.913 244.134C110.909 243.7 109.902 243.276 108.892 242.869C103.323 240.653 97.6361 238.875 91.8919 237.535C89.0243 236.851 86.1369 236.296 83.2502 235.812C80.3593 235.347 77.4675 234.962 74.5722 234.686C68.8528 234.13 63.1339 233.934 57.4527 234.077C60.7142 230.83 63.8313 227.41 66.7826 223.823C68.6345 221.581 70.4068 219.263 72.1221 216.89C73.8216 214.507 75.4707 212.073 77.0147 209.562C80.1289 204.552 82.8924 199.274 85.2643 193.769C85.6902 192.767 86.102 191.755 86.5053 190.738C79.4659 192.962 72.1279 195.098 64.4622 197.128C64.4642 197.13 64.4396 197.249 62.4441 201.828C61.3845 204.222 60.2833 206.615 59.0988 208.98C57.9308 211.353 56.6884 213.702 55.405 216.044C52.831 220.722 50.0406 225.335 47.0768 229.889C45.938 231.639 44.7733 233.38 43.5845 235.113C42.4361 235.257 41.2903 235.414 40.1475 235.587C37.3273 236.018 34.5253 236.534 31.7488 237.16C30.3618 237.474 28.9805 237.808 27.6091 238.187C26.9228 238.377 26.2394 238.57 25.5588 238.773C24.8798 238.987 24.2008 239.193 23.533 239.436C24.241 239.499 24.9425 239.559 25.6449 239.633C26.3456 239.699 27.0451 239.768 27.7439 239.845C29.1403 239.999 30.5295 240.152 31.9147 240.322C34.363 240.618 36.7953 240.941 39.2145 241.294C38.7082 241.99 38.1994 242.685 37.6855 243.378C36.042 245.6 34.3561 247.805 32.6337 250.001C31.7743 251.101 30.9003 252.192 30.0219 253.288C29.5823 253.837 29.1366 254.38 28.6878 254.922C28.2434 255.471 27.7898 256.01 27.3333 256.555C27.9777 256.254 28.6035 255.92 29.2347 255.591C29.8595 255.253 30.4791 254.906 31.0985 254.555C32.3363 253.853 33.5494 253.113 34.7527 252.355C37.1581 250.834 39.5044 249.217 41.8037 247.528C43.9 245.982 45.9548 244.372 47.9668 242.703C50.7817 243.203 53.5767 243.744 56.3491 244.331Z" fill="#D89354"/>
<path d="M183.972 305.489C172.975 303.892 162.293 314.767 160.116 329.778C157.939 344.787 165.089 358.249 176.086 359.844C187.083 361.441 197.764 350.566 199.942 335.555C202.12 320.545 194.97 307.084 183.972 305.489Z" fill="#D89354"/>
<path d="M254.555 328.901C253.853 327.664 253.113 326.45 252.355 325.247C250.834 322.842 249.217 320.496 247.528 318.196C245.982 316.1 244.372 314.045 242.703 312.033C243.203 309.218 243.744 306.423 244.331 303.651C245.455 298.335 246.744 293.1 248.232 287.972C248.98 285.409 249.762 282.869 250.615 280.365C251.449 277.856 252.363 275.385 253.306 272.943C255.134 268.293 255.2 268.192 255.203 268.192C251.218 261.336 247.54 254.637 244.134 248.087C243.7 249.091 243.276 250.098 242.869 251.108C240.654 256.677 238.875 262.364 237.535 268.108C236.851 270.976 236.296 273.863 235.812 276.75C235.347 279.641 234.962 282.532 234.686 285.428C234.13 291.147 233.934 296.866 234.077 302.547C230.83 299.286 227.41 296.169 223.823 293.217C221.581 291.365 219.263 289.593 216.89 287.878C214.507 286.178 212.073 284.529 209.562 282.985C204.552 279.871 199.274 277.108 193.769 274.736C192.767 274.31 191.755 273.898 190.738 273.495C192.962 280.534 195.098 287.872 197.128 295.538C197.13 295.535 197.249 295.56 201.828 297.556C204.223 298.615 206.615 299.717 208.98 300.901C211.353 302.069 213.702 303.311 216.044 304.595C220.722 307.169 225.335 309.959 229.889 312.923C231.639 314.062 233.38 315.227 235.113 316.415C235.257 317.564 235.414 318.71 235.587 319.852C236.018 322.673 236.534 325.475 237.16 328.251C237.474 329.638 237.808 331.019 238.187 332.391C238.377 333.077 238.57 333.76 238.773 334.441C238.987 335.12 239.193 335.799 239.436 336.467C239.499 335.759 239.559 335.057 239.633 334.355C239.699 333.654 239.768 332.955 239.845 332.256C239.999 330.86 240.152 329.47 240.322 328.085C240.618 325.637 240.941 323.205 241.294 320.786C241.99 321.292 242.685 321.801 243.378 322.314C245.6 323.958 247.805 325.644 250.001 327.366C251.101 328.226 252.192 329.1 253.288 329.978C253.837 330.418 254.38 330.863 254.922 331.312C255.471 331.756 256.01 332.21 256.555 332.666C256.254 332.022 255.92 331.396 255.591 330.765C255.253 330.14 254.906 329.521 254.555 328.901Z" fill="#D89354"/>
<path d="M170.815 295.538C172.845 287.872 174.981 280.534 177.205 273.495C176.188 273.898 175.177 274.31 174.174 274.736C168.669 277.108 163.391 279.871 158.382 282.985C155.87 284.529 153.436 286.178 151.053 287.878C148.68 289.593 146.363 291.366 144.12 293.217C139.683 296.869 135.5 300.774 131.584 304.893C131.594 300.29 131.38 295.667 130.931 291.044C130.655 288.149 130.269 285.257 129.804 282.367C129.321 279.48 128.766 276.592 128.082 273.725C126.742 267.981 124.963 262.294 122.748 256.725C122.34 255.715 121.916 254.708 121.482 253.704C118.077 260.254 114.399 266.953 110.414 273.809C110.417 273.809 110.483 273.91 112.31 278.56C113.254 281.002 114.167 283.472 115.002 285.982C115.854 288.486 116.637 291.026 117.385 293.589C118.873 298.717 120.162 303.952 121.286 309.268C121.718 311.31 122.126 313.365 122.511 315.431C121.8 316.345 121.101 317.266 120.415 318.196C118.726 320.496 117.11 322.842 115.589 325.247C114.83 326.451 114.09 327.664 113.388 328.901C113.037 329.521 112.69 330.14 112.353 330.765C112.023 331.397 111.689 332.022 111.389 332.667C111.934 332.21 112.472 331.757 113.021 331.312C113.563 330.863 114.107 330.418 114.656 329.978C115.752 329.1 116.843 328.226 117.942 327.366C119.883 325.844 121.831 324.353 123.791 322.892C123.925 323.742 124.057 324.593 124.183 325.447C124.593 328.18 124.96 330.931 125.294 333.702C125.464 335.087 125.618 336.477 125.772 337.873C125.849 338.572 125.918 339.271 125.984 339.972C126.058 340.674 126.118 341.376 126.181 342.084C126.424 341.416 126.63 340.737 126.844 340.058C127.047 339.378 127.24 338.694 127.429 338.008C127.808 336.636 128.143 335.255 128.457 333.868C129.083 331.092 129.599 328.289 130.03 325.469C130.419 322.893 130.734 320.302 130.976 317.7C133.32 316.063 135.679 314.469 138.055 312.923C142.608 309.96 147.222 307.169 151.899 304.595C154.241 303.312 156.59 302.069 158.964 300.901C161.328 299.717 163.721 298.616 166.115 297.556C170.695 295.56 170.814 295.536 170.815 295.538Z" fill="#D89354"/>
<path d="M271.542 265.926C262.638 272.573 262.774 287.815 271.849 299.969C280.923 312.122 295.497 316.585 304.402 309.937C313.306 303.29 313.17 288.048 304.096 275.893C295.022 263.74 280.447 259.277 271.542 265.926Z" fill="#D89354"/>
<path d="M338.008 232.571C336.636 232.192 335.255 231.858 333.868 231.543C331.092 230.918 328.29 230.401 325.47 229.97C322.894 229.581 320.302 229.266 317.7 229.024C316.063 226.68 314.469 224.321 312.923 221.946C309.96 217.392 307.169 212.779 304.595 208.101C303.312 205.759 302.069 203.41 300.901 201.037C299.717 198.672 298.616 196.279 297.556 193.885C295.56 189.306 295.536 189.187 295.538 189.185C287.872 187.155 280.534 185.019 273.495 182.795C273.898 183.812 274.31 184.824 274.736 185.826C277.108 191.331 279.871 196.609 282.985 201.619C284.53 204.13 286.179 206.564 287.878 208.947C289.593 211.32 291.366 213.638 293.217 215.88C296.869 220.317 300.774 224.5 304.893 228.416C300.29 228.406 295.668 228.62 291.045 229.069C288.15 229.345 285.257 229.731 282.367 230.196C279.48 230.679 276.593 231.234 273.725 231.918C267.981 233.259 262.294 235.037 256.725 237.252C255.715 237.66 254.708 238.084 253.704 238.518C260.254 241.923 266.953 245.601 273.809 249.586C273.809 249.584 273.91 249.517 278.56 247.69C281.002 246.746 283.473 245.833 285.982 244.998C288.486 244.146 291.026 243.363 293.589 242.615C298.717 241.128 303.952 239.838 309.268 238.714C311.311 238.282 313.365 237.874 315.431 237.49C316.345 238.2 317.266 238.899 318.196 239.585C320.496 241.274 322.842 242.891 325.247 244.412C326.451 245.17 327.664 245.91 328.902 246.612C329.521 246.963 330.141 247.31 330.765 247.648C331.397 247.977 332.023 248.311 332.667 248.611C332.21 248.066 331.757 247.528 331.313 246.979C330.864 246.437 330.418 245.893 329.978 245.345C329.1 244.248 328.226 243.158 327.367 242.058C325.844 240.118 324.353 238.169 322.892 236.209C323.742 236.075 324.593 235.943 325.447 235.817C328.18 235.407 330.932 235.04 333.702 234.706C335.088 234.536 336.477 234.382 337.873 234.228C338.572 234.151 339.271 234.082 339.972 234.016C340.674 233.942 341.376 233.882 342.084 233.819C341.416 233.576 340.737 233.37 340.058 233.157C339.378 232.953 338.694 232.761 338.008 232.571Z" fill="#D89354"/>
<path d="M335.555 160.058C320.546 157.88 307.084 165.03 305.489 176.028C303.892 187.025 314.767 197.707 329.778 199.884C344.788 202.061 358.249 194.911 359.844 183.914C361.441 172.917 350.566 162.236 335.555 160.058Z" fill="#D89354"/>
<path d="M299.969 88.151C312.122 79.0771 316.585 64.5026 309.937 55.5982C303.29 46.6937 288.048 46.8304 275.893 55.9044C263.74 64.9783 259.277 79.5532 265.926 88.4576C272.573 97.3624 287.816 97.2256 299.969 88.151Z" fill="#D89354"/>
<path d="M303.651 115.669C298.335 114.545 293.1 113.256 287.972 111.768C285.409 111.02 282.869 110.238 280.365 109.385C277.856 108.551 275.385 107.637 272.943 106.694C268.293 104.867 268.192 104.8 268.192 104.797C261.336 108.782 254.637 112.461 248.087 115.866C249.091 116.3 250.098 116.724 251.108 117.131C256.677 119.347 262.364 121.125 268.108 122.465C270.976 123.149 273.863 123.704 276.75 124.188C279.641 124.653 282.533 125.038 285.428 125.314C291.147 125.87 296.866 126.066 302.547 125.923C299.286 129.17 296.169 132.59 293.217 136.177C291.366 138.419 289.593 140.737 287.878 143.11C286.178 145.492 284.529 147.927 282.985 150.438C279.871 155.448 277.108 160.726 274.736 166.231C274.31 167.233 273.898 168.245 273.494 169.262C280.534 167.038 287.872 164.902 295.538 162.872C295.536 162.87 295.56 162.751 297.556 158.172C298.615 155.777 299.717 153.385 300.901 151.02C302.069 148.647 303.312 146.298 304.595 143.956C307.169 139.278 309.959 134.665 312.923 130.111C314.062 128.361 315.227 126.62 316.415 124.887C317.564 124.743 318.71 124.586 319.852 124.413C322.673 123.982 325.475 123.466 328.251 122.84C329.638 122.526 331.02 122.192 332.391 121.813C333.077 121.623 333.761 121.43 334.441 121.227C335.12 121.013 335.799 120.807 336.467 120.564C335.759 120.501 335.057 120.441 334.355 120.367C333.654 120.301 332.955 120.232 332.256 120.155C330.86 120.001 329.47 119.848 328.085 119.678C325.637 119.382 323.205 119.059 320.786 118.706C321.292 118.01 321.801 117.315 322.315 116.622C323.958 114.4 325.644 112.195 327.366 109.999C328.226 108.899 329.1 107.808 329.978 106.712C330.418 106.163 330.863 105.62 331.312 105.078C331.756 104.529 332.21 103.99 332.667 103.445C332.022 103.746 331.397 104.08 330.765 104.409C330.14 104.747 329.521 105.094 328.901 105.445C327.664 106.147 326.451 106.887 325.247 107.645C322.842 109.166 320.496 110.783 318.196 112.472C316.1 114.018 314.045 115.628 312.033 117.297C309.218 116.797 306.423 116.256 303.651 115.669Z" fill="#D89354"/>
</svg>
